<svg xmlns="http://www.w3.org/2000/svg" viewBox="-19049 -21978 437 424">
  <defs>
    <style>
      .cls-1 {
        fill: #fff;
        stroke: #000;
        stroke-width: 10px;
      }

      .cls-2 {
        stroke: none;
      }

      .cls-3 {
        fill: none;
      }
    </style>
  </defs>
  <g id="design" transform="translate(-19788 -24522)">
    <g id="Rectangle_34" data-name="Rectangle 34" class="cls-1" transform="translate(739 2544)">
      <rect class="cls-2" width="437" height="424"/>
      <rect class="cls-3" x="5" y="5" width="427" height="414"/>
    </g>
    <g id="Group">
      <path id="Path_1" data-name="Path 1" d="M49.62-9.42V8.46H38.76V0H11.88V8.46H.96V-9.42h1.5q3.72-.06,5.25-5.1T9.6-29.04L10.08-42H43.92V-9.42ZM19.98-28.02a82.5,82.5,0,0,1-1.08,11.4,18.525,18.525,0,0,1-2.58,7.2h15.9V-32.58H20.16ZM55.32-42h11.7v24.66L84.36-42H95.52V0H83.82V-24.6L66.54,0H55.32Z" transform="translate(926.98 2704.5)"/>
      <path id="Path_2" data-name="Path 2" d="M30.48-21.84a11.9,11.9,0,0,1,5.46,3.96,9.831,9.831,0,0,1,1.98,6.06,9.706,9.706,0,0,1-2.64,6.78A16.786,16.786,0,0,1,28.14-.63,30.592,30.592,0,0,1,18.24.9,38.393,38.393,0,0,1,9.57-.12,36.967,36.967,0,0,1,1.14-3.18l3.54-8.28a26.421,26.421,0,0,0,6.03,2.19,27.268,27.268,0,0,0,6.21.75A14.2,14.2,0,0,0,23.4-9.81a3.979,3.979,0,0,0,2.52-3.63,2.974,2.974,0,0,0-1.56-2.76,8.4,8.4,0,0,0-4.2-.9H9.42v-8.7H19.2a6.239,6.239,0,0,0,3.72-.96,3.03,3.03,0,0,0,1.32-2.58,3.447,3.447,0,0,0-2.04-3.15,11,11,0,0,0-5.28-1.11,22.594,22.594,0,0,0-5.58.75,25.73,25.73,0,0,0-5.58,2.13l-3.48-9a33.536,33.536,0,0,1,14.76-3.24,30.091,30.091,0,0,1,9.57,1.47,16.722,16.722,0,0,1,7.02,4.23,9.2,9.2,0,0,1,2.61,6.54,9.292,9.292,0,0,1-1.53,5.25A10.45,10.45,0,0,1,30.48-21.84ZM73.32-8.16H55.56L52.26,0H40.14L58.68-42h11.7L88.98,0H76.62Zm-3.48-8.76-5.4-13.44-5.4,13.44ZM93.78-42h11.7v24.66L122.82-42h11.16V0h-11.7V-24.6L105,0H93.78Zm20.04-2.52q-6.36,0-9.33-2.46t-2.97-7.32h7.98a4.436,4.436,0,0,0,1.08,3.12,4.433,4.433,0,0,0,3.24,1.02,4.658,4.658,0,0,0,3.3-1.02,4.28,4.28,0,0,0,1.14-3.12h7.98q0,4.86-3,7.32T113.82-44.52Z" transform="translate(888.52 2777.5)"/>
      <path id="Path_3" data-name="Path 3" d="M44.46-42V0H32.58V-16.38H16.38V0H4.5V-42H16.38v15.78h16.2V-42Z" transform="translate(978.04 2850.5)"/>
    </g>
  </g>
</svg>
