<svg xmlns="http://www.w3.org/2000/svg" viewBox="-19784 -5464 110.918 110.918">
  <defs>
    <style>
      .cls-1 {
        fill: #ff4e5a;
        stroke: rgba(0,0,0,0);
      }
    </style>
  </defs>
  <g id="Group_2" data-name="Group 2" transform="translate(-20691.037 -6041.036)">
    <rect id="Rectangle_3" data-name="Rectangle 3" width="110.918" height="110.918" transform="translate(907.036 577.036)"/>
    <path id="Path_2" data-name="Path 2" class="cls-1" d="M39.295-53.049v-27.81h2.158v27.81a10.119,10.119,0,0,1-3.6,7.792,12.456,12.456,0,0,1-8.631,3.237A12.456,12.456,0,0,1,20.6-45.258,10.119,10.119,0,0,1,17-53.049v-27.81h2.158v27.81a8.076,8.076,0,0,0,2.952,6.263,10.381,10.381,0,0,0,7.117,2.607,10.381,10.381,0,0,0,7.117-2.607A8.076,8.076,0,0,0,39.295-53.049Zm4.315,0v-27.81h2.158v27.81A13.929,13.929,0,0,1,44.449-47.1a15.667,15.667,0,0,1-3.536,4.9,16.651,16.651,0,0,1-5.274,3.281,17.22,17.22,0,0,1-6.413,1.214,17.22,17.22,0,0,1-6.413-1.214A16.651,16.651,0,0,1,17.538-42.2,15.667,15.667,0,0,1,14-47.1a13.929,13.929,0,0,1-1.319-5.949v-27.81h2.158v27.81a12.086,12.086,0,0,0,1.933,6.608,13.769,13.769,0,0,0,5.244,4.81,15.063,15.063,0,0,0,7.207,1.768,15.063,15.063,0,0,0,7.207-1.768,13.769,13.769,0,0,0,5.244-4.81A12.086,12.086,0,0,0,43.61-53.049Zm4.315,0v-27.81h2.158v27.81a18.151,18.151,0,0,1-1.663,7.627,19.96,19.96,0,0,1-4.45,6.278,20.964,20.964,0,0,1-6.653,4.2,21.441,21.441,0,0,1-8.091,1.558,21.441,21.441,0,0,1-8.091-1.558,20.964,20.964,0,0,1-6.653-4.2,19.96,19.96,0,0,1-4.45-6.278,18.151,18.151,0,0,1-1.663-7.627v-27.81h2.158v27.81a16.236,16.236,0,0,0,2.517,8.766A18.151,18.151,0,0,0,19.861-37.9a19.2,19.2,0,0,0,9.365,2.352A19.2,19.2,0,0,0,38.591-37.9a18.151,18.151,0,0,0,6.818-6.383A16.236,16.236,0,0,0,47.926-53.049Zm4.315,0v-27.81H54.4v27.81a22.559,22.559,0,0,1-3.386,12A24.547,24.547,0,0,1,41.827-32.3a25.522,25.522,0,0,1-12.6,3.222,25.522,25.522,0,0,1-12.6-3.222,24.547,24.547,0,0,1-9.185-8.751,22.559,22.559,0,0,1-3.386-12v-27.81H6.21v27.81A20.3,20.3,0,0,0,8.038-44.6a21.892,21.892,0,0,0,4.915,6.968,23.41,23.41,0,0,0,7.357,4.66,23.428,23.428,0,0,0,8.915,1.738,23.428,23.428,0,0,0,8.915-1.738,23.41,23.41,0,0,0,7.357-4.66A21.892,21.892,0,0,0,50.413-44.6,20.3,20.3,0,0,0,52.241-53.049Z" transform="translate(933.113 689.044)"/>
  </g>
</svg>
