<svg xmlns="http://www.w3.org/2000/svg" viewBox="-18602 -21978 437 424">
  <defs>
    <style>
      .cls-1 {
        fill: #fff;
        stroke: #000;
        stroke-width: 10px;
      }

      .cls-2 {
        stroke: none;
      }

      .cls-3 {
        fill: none;
      }
    </style>
  </defs>
  <g id="frontend" transform="translate(-19351 -25954)">
    <g id="Rectangle_38" data-name="Rectangle 38" class="cls-1" transform="translate(749 3976)">
      <rect class="cls-2" width="437" height="424"/>
      <rect class="cls-3" x="5" y="5" width="427" height="414"/>
    </g>
    <g id="Group">
      <path id="Path_4" data-name="Path 4" d="M56.22-21.12q0,8.22-5.61,13.05T34.38-2.64V1.98H23.52V-2.64Q12.9-3.42,7.29-8.16T1.68-21.12q0-8.22,5.58-12.99t16.26-5.55v-4.32H34.38v4.32q10.62.72,16.23,5.49T56.22-21.12ZM34.38-11.88q5.34-.6,7.83-2.88a8.266,8.266,0,0,0,2.49-6.42,7.978,7.978,0,0,0-2.55-6.36q-2.55-2.22-7.77-2.82ZM13.2-21.12a7.86,7.86,0,0,0,2.58,6.3q2.58,2.22,7.74,2.88V-30.36q-5.4.6-7.86,2.82A8.2,8.2,0,0,0,13.2-21.12ZM81.6-42a23.955,23.955,0,0,1,9.9,1.89,14.681,14.681,0,0,1,6.48,5.4,14.805,14.805,0,0,1,2.28,8.25,14.659,14.659,0,0,1-2.28,8.22,14.754,14.754,0,0,1-6.48,5.37,23.955,23.955,0,0,1-9.9,1.89H74.28V0H62.4V-42Zm-.72,21.66a8.3,8.3,0,0,0,5.52-1.59,5.633,5.633,0,0,0,1.86-4.53,5.724,5.724,0,0,0-1.86-4.56,8.193,8.193,0,0,0-5.52-1.62h-6.6v12.3Z" transform="translate(936.3 4136.5)"/>
      <path id="Path_5" data-name="Path 5" d="M25.14.84A25.121,25.121,0,0,1,13.17-1.98a21.187,21.187,0,0,1-8.34-7.8A21.156,21.156,0,0,1,1.8-21,21.156,21.156,0,0,1,4.83-32.22a21.187,21.187,0,0,1,8.34-7.8,25.121,25.121,0,0,1,11.97-2.82,25.121,25.121,0,0,1,11.97,2.82,21.187,21.187,0,0,1,8.34,7.8A21.156,21.156,0,0,1,48.48-21,21.156,21.156,0,0,1,45.45-9.78a21.187,21.187,0,0,1-8.34,7.8A25.121,25.121,0,0,1,25.14.84Zm0-9.84a11.249,11.249,0,0,0,5.76-1.5,10.789,10.789,0,0,0,4.08-4.23A12.807,12.807,0,0,0,36.48-21a12.807,12.807,0,0,0-1.5-6.27A10.789,10.789,0,0,0,30.9-31.5,11.249,11.249,0,0,0,25.14-33a11.249,11.249,0,0,0-5.76,1.5,10.789,10.789,0,0,0-4.08,4.23A12.807,12.807,0,0,0,13.8-21a12.807,12.807,0,0,0,1.5,6.27,10.789,10.789,0,0,0,4.08,4.23A11.249,11.249,0,0,0,25.14-9ZM94.8-42V0H82.92V-16.38H66.72V0H54.84V-42H66.72v15.78h16.2V-42Zm42.84,9.42H124.8V0H113.1V-32.58H100.2V-42h37.44Z" transform="translate(899.4 4209.5)"/>
      <path id="Path_6" data-name="Path 6" d="M38.22-9.18V0H4.5V-42H37.44v9.18H16.26v7.08H34.92v8.88H16.26v7.68ZM84.96-42V0H73.08V-16.38H56.88V0H45V-42H56.88v15.78h16.2V-42Zm54,32.58V8.46H128.1V0H101.22V8.46H90.3V-9.42h1.5q3.72-.06,5.25-5.1t1.89-14.52L99.42-42h33.84V-9.42Zm-29.64-18.6a82.5,82.5,0,0,1-1.08,11.4,18.525,18.525,0,0,1-2.58,7.2h15.9V-32.58H109.5Z" transform="translate(897.84 4282.5)"/>
    </g>
  </g>
</svg>
