<svg xmlns="http://www.w3.org/2000/svg" viewBox="-1624 2600 59.616 58.148">
  <defs>
    <style>
      .cls-1 {
        fill: #ff4e5a;
        fill-rule: evenodd;
      }
    </style>
  </defs>
  <path id="if_github_317712" class="cls-1" d="M29.814,0a29.812,29.812,0,0,0-9.42,58.1c1.491.272,1.96-.611,1.96-1.4,0-.708.015-2.687,0-5.175-8.291,1.8-10.009-3.926-10.009-3.926-1.355-3.444-3.308-4.361-3.308-4.361-2.706-1.849.2-1.813.2-1.813a6.267,6.267,0,0,1,4.567,3.073c2.659,4.552,6.975,3.237,8.673,2.477a6.379,6.379,0,0,1,1.9-3.986C17.758,42.23,10.8,39.673,10.8,28.25a11.518,11.518,0,0,1,3.067-8,10.7,10.7,0,0,1,.293-7.89s2.5-.8,8.2,3.058a28.28,28.28,0,0,1,14.926,0c5.693-3.857,8.192-3.058,8.192-3.058a10.72,10.72,0,0,1,.3,7.89,11.516,11.516,0,0,1,3.064,8c0,11.453-6.969,13.972-13.611,14.708,1.07.922,2.04,2.711,2.04,5.492V56.7c0,.8.481,1.679,1.994,1.39A29.814,29.814,0,0,0,29.814,0Z" transform="translate(-1624.008 2600)"/>
</svg>
