<svg xmlns="http://www.w3.org/2000/svg" viewBox="-18155 -21978 437 424">
  <defs>
    <style>
      .cls-1 {
        fill: #fff;
        stroke: #000;
        stroke-width: 10px;
      }

      .cls-2 {
        stroke: none;
      }

      .cls-3 {
        fill: none;
      }
    </style>
  </defs>
  <g id="imposition" transform="translate(-18333 -25237)">
    <g id="Rectangle_37" data-name="Rectangle 37" class="cls-1" transform="translate(178 3259)">
      <rect class="cls-2" width="437" height="424"/>
      <rect class="cls-3" x="5" y="5" width="427" height="414"/>
    </g>
    <path id="ВЕ_РСТ_КА" data-name="ВЕ
РСТ
КА" d="M35.1-21.96a11.31,11.31,0,0,1,5.67,3.72A9.89,9.89,0,0,1,42.72-12a10.334,10.334,0,0,1-4.35,8.79Q34.02,0,26.04,0H4.5V-42H24.9q7.56,0,11.73,2.85a9.207,9.207,0,0,1,4.17,8.07,9.936,9.936,0,0,1-1.47,5.4A10.276,10.276,0,0,1,35.1-21.96ZM16.2-25.2h7.56q5.04,0,5.04-4.14t-5.04-4.14H16.2ZM25.56-8.52q5.16,0,5.16-4.38,0-4.26-5.16-4.26H16.2v8.64Zm57.3-.66V0H49.14V-42H82.08v9.18H60.9v7.08H79.56v8.88H60.9v7.68ZM23.7,31a23.955,23.955,0,0,1,9.9,1.89,14.681,14.681,0,0,1,6.48,5.4,14.805,14.805,0,0,1,2.28,8.25A14.148,14.148,0,0,1,33.6,60.13a23.955,23.955,0,0,1-9.9,1.89H16.38V73H4.5V31Zm-.72,21.66a8.3,8.3,0,0,0,5.52-1.59,5.633,5.633,0,0,0,1.86-4.53,5.724,5.724,0,0,0-1.86-4.56,8.193,8.193,0,0,0-5.52-1.62h-6.6v12.3ZM68.76,73.84a24.856,24.856,0,0,1-11.85-2.79,20.863,20.863,0,0,1-8.25-7.77,21.43,21.43,0,0,1-3-11.28,21.43,21.43,0,0,1,3-11.28,20.863,20.863,0,0,1,8.25-7.77,24.856,24.856,0,0,1,11.85-2.79A25.435,25.435,0,0,1,79.14,32.2a19.971,19.971,0,0,1,7.68,5.88l-7.56,6.84A12.435,12.435,0,0,0,69.36,40a12.218,12.218,0,0,0-6.09,1.5,10.411,10.411,0,0,0-4.14,4.23,14.107,14.107,0,0,0,0,12.54,10.411,10.411,0,0,0,4.14,4.23A12.218,12.218,0,0,0,69.36,64a12.435,12.435,0,0,0,9.9-4.92l7.56,6.84a19.971,19.971,0,0,1-7.68,5.88A25.435,25.435,0,0,1,68.76,73.84Zm56.88-33.42H112.8V73H101.1V40.42H88.2V31h37.44ZM21.48,129.92h-5.4V146H4.26V104H16.08v16.32h5.7L31.8,104H44.28L31.14,124.28,44.4,146H31.02Zm54.72,7.92H58.44L55.14,146H43.02l18.54-42h11.7l18.6,42H79.5Zm-3.48-8.76-5.4-13.44-5.4,13.44Z" transform="translate(333 3419.5)"/>
  </g>
</svg>
