<svg xmlns="http://www.w3.org/2000/svg" viewBox="-11908 -5522 449 110.918">
  <defs>
    <style>
      .cls-1 {
        fill: #ff4e5a;
        stroke: rgba(0,0,0,0);
      }
    </style>
  </defs>
  <g id="Group_6" data-name="Group 6" transform="translate(-12421 -5788)">
    <rect id="Rectangle_1" data-name="Rectangle 1" width="449" height="110.918" transform="translate(513 266)"/>
    <path id="Path_1" data-name="Path 1" class="cls-1" d="M31.865-60.725V-82.672h1.7v21.947a7.986,7.986,0,0,1-2.838,6.149,9.83,9.83,0,0,1-6.811,2.554,9.83,9.83,0,0,1-6.811-2.554,7.986,7.986,0,0,1-2.838-6.149V-82.672h1.7v21.947a6.373,6.373,0,0,0,2.33,4.943,8.192,8.192,0,0,0,5.617,2.058,8.192,8.192,0,0,0,5.617-2.058A6.373,6.373,0,0,0,31.865-60.725Zm3.406,0V-82.672h1.7v21.947a10.993,10.993,0,0,1-1.041,4.695,12.364,12.364,0,0,1-2.791,3.867,13.141,13.141,0,0,1-4.162,2.59,13.59,13.59,0,0,1-5.061.958,13.59,13.59,0,0,1-5.061-.958,13.141,13.141,0,0,1-4.162-2.59A12.364,12.364,0,0,1,11.9-56.03a10.993,10.993,0,0,1-1.041-4.695V-82.672h1.7v21.947a9.538,9.538,0,0,0,1.525,5.215,10.866,10.866,0,0,0,4.139,3.8,11.888,11.888,0,0,0,5.688,1.4,11.888,11.888,0,0,0,5.688-1.4,10.866,10.866,0,0,0,4.139-3.8A9.538,9.538,0,0,0,35.271-60.725Zm3.406,0V-82.672h1.7v21.947a14.324,14.324,0,0,1-1.313,6.019,15.752,15.752,0,0,1-3.512,4.955A16.544,16.544,0,0,1,30.3-46.44a16.921,16.921,0,0,1-6.386,1.23,16.921,16.921,0,0,1-6.386-1.23,16.544,16.544,0,0,1-5.25-3.311,15.752,15.752,0,0,1-3.512-4.955,14.713,14.713,0,0,1-1.106-3.567,14.049,14.049,0,0,1-.206-2.452V-82.672h1.7v21.947a12.814,12.814,0,0,0,1.987,6.918,14.325,14.325,0,0,0,5.38,5.038,15.151,15.151,0,0,0,7.391,1.857,15.151,15.151,0,0,0,7.391-1.857,14.325,14.325,0,0,0,5.38-5.038A12.814,12.814,0,0,0,38.677-60.725Zm3.406,0V-82.672h1.7v21.947a17.8,17.8,0,0,1-2.672,9.472,19.372,19.372,0,0,1-7.249,6.906A20.141,20.141,0,0,1,23.919-41.8a20.141,20.141,0,0,1-9.945-2.542,19.372,19.372,0,0,1-7.249-6.906,17.8,17.8,0,0,1-2.672-9.472V-82.672h1.7v21.947A16.02,16.02,0,0,0,7.2-54.055a17.277,17.277,0,0,0,3.879,5.5,18.475,18.475,0,0,0,5.806,3.678,18.489,18.489,0,0,0,7.036,1.372,18.489,18.489,0,0,0,7.036-1.372,18.475,18.475,0,0,0,5.806-3.678,17.277,17.277,0,0,0,3.879-5.5A16.02,16.02,0,0,0,42.082-60.725Zm7.992-21.947h1.7v39.165h-1.7Zm10.217,0h1.7v30.651H75.617v1.7H61.994v1.7H75.617v1.7H61.994v1.7H75.617v1.7H60.291Zm-3.406,0h1.7v39.165h-1.7Zm-3.406,0h1.7v39.165h-1.7ZM94.417-63.208l-.851,1.868L83.348-82.672h1.7Zm1.7-3.737-.875,1.868-8.49-17.6h1.7Zm1.7-3.713-.851,1.868L90.16-82.672h1.7ZM95.67-56.7l12.322-25.968h1.7L97.373-56.7v13.2h-1.7Zm3.406,0L111.4-82.672h1.7L100.779-56.7v13.2h-1.7Zm3.406,0L114.8-82.672h1.7L104.184-56.7v13.2h-1.7Zm-9.366-1.8,11.47-24.171h1.7L93.967-56.7v13.2h-1.7V-56.7L79.943-82.672h1.7ZM138.381-55l.686-1.7h5.818l.686,1.7ZM137.056-51.6l.662-1.7h8.49l.733,1.7Zm-1.324,3.406.662-1.7h11.163l.71,1.7ZM121.9-43.507h-1.845l15.491-39.165h1.845l15.467,39.165h-1.821L136.465-80.378Zm14.781-32.827.97,2.176L125.539-43.507h-1.821Zm1.892,4.494.9,2.341L129.228-43.507h-1.845Zm1.8,4.683.9,2.389-8.4,21.262h-1.821Zm23.485,23.65h-1.845L146.54-82.672h1.821ZM144.7-82.672l15.491,39.165h-1.821L142.874-82.672Zm-3.666,0,15.491,39.165h-1.845L139.209-82.672Zm55.553,20.316-1.7-2.814v-17.5h1.7Zm3.406,5.581-1.7-2.862V-82.672h1.7Zm3.406,5.652-1.7-2.885V-82.672h1.7Zm-24.407-12.7,1.7,2.814v17.5h-1.7ZM175.581-69.4l1.7,2.862v23.035h-1.7Zm-3.406-5.652,1.7,2.885v28.664h-1.7Zm.591-7.615h1.987l24.076,39.165h-1.987Zm4.021,0h2.01L202.85-43.507h-2.034Zm4,0h1.987l22.326,36.4v-36.4h1.7v39.165h-2.01Zm-10.312,2.767v36.4h-1.7V-82.672H170.8l24.005,39.165h-1.963Zm56.546,10.193a9.024,9.024,0,0,0-2.743,6.622,9.024,9.024,0,0,0,2.743,6.622,9.023,9.023,0,0,0,6.622,2.743,9.023,9.023,0,0,0,6.622-2.743,9.023,9.023,0,0,0,2.743-6.622,9.023,9.023,0,0,0-2.743-6.622,9.024,9.024,0,0,0-6.622-2.743A9.023,9.023,0,0,0,227.018-69.712ZM223.447-58.8a10.8,10.8,0,0,1-.875-4.293,10.8,10.8,0,0,1,.875-4.293,11.132,11.132,0,0,1,2.365-3.536,11.132,11.132,0,0,1,3.536-2.365,10.8,10.8,0,0,1,4.293-.875,10.8,10.8,0,0,1,4.293.875,11.132,11.132,0,0,1,3.536,2.365,11.133,11.133,0,0,1,2.365,3.536,10.8,10.8,0,0,1,.875,4.293,10.8,10.8,0,0,1-.875,4.293,11.133,11.133,0,0,1-2.365,3.536,11.133,11.133,0,0,1-3.536,2.365,10.8,10.8,0,0,1-4.293.875,10.8,10.8,0,0,1-4.293-.875,11.132,11.132,0,0,1-3.536-2.365A11.132,11.132,0,0,1,223.447-58.8Zm-.863-10.7a12.472,12.472,0,0,0-1.715,6.409,12.472,12.472,0,0,0,1.715,6.409,12.754,12.754,0,0,0,4.647,4.647,12.472,12.472,0,0,0,6.409,1.715,12.472,12.472,0,0,0,6.409-1.715,12.754,12.754,0,0,0,4.647-4.647,12.472,12.472,0,0,0,1.715-6.409A12.472,12.472,0,0,0,244.7-69.5a12.754,12.754,0,0,0-4.647-4.647,12.472,12.472,0,0,0-6.409-1.715,12.472,12.472,0,0,0-6.409,1.715A12.754,12.754,0,0,0,222.584-69.5Zm-1.478,13.67a14.19,14.19,0,0,1-1.939-7.261,14.19,14.19,0,0,1,1.939-7.261,14.342,14.342,0,0,1,5.274-5.274,14.19,14.19,0,0,1,7.261-1.939,14.19,14.19,0,0,1,7.261,1.939,14.342,14.342,0,0,1,5.274,5.274,14.19,14.19,0,0,1,1.939,7.261,14.19,14.19,0,0,1-1.939,7.261,14.342,14.342,0,0,1-5.274,5.274,14.19,14.19,0,0,1-7.261,1.939,14.19,14.19,0,0,1-7.261-1.939A14.342,14.342,0,0,1,221.106-55.829Zm-2.365-13.552a15.915,15.915,0,0,0-1.277,6.291,15.915,15.915,0,0,0,1.277,6.291,16.159,16.159,0,0,0,3.441,5.168,16.159,16.159,0,0,0,5.168,3.441,15.915,15.915,0,0,0,6.291,1.277,15.915,15.915,0,0,0,6.291-1.277,16.159,16.159,0,0,0,5.168-3.441A16.16,16.16,0,0,0,248.54-56.8a15.915,15.915,0,0,0,1.277-6.291,15.915,15.915,0,0,0-1.277-6.291,16.16,16.16,0,0,0-3.441-5.168,16.16,16.16,0,0,0-5.168-3.441,15.915,15.915,0,0,0-6.291-1.277,15.915,15.915,0,0,0-6.291,1.277,16.159,16.159,0,0,0-5.168,3.441A16.159,16.159,0,0,0,218.741-69.381Zm-.579,15.254a17.476,17.476,0,0,1-2.4-8.963,17.476,17.476,0,0,1,2.4-8.963,17.811,17.811,0,0,1,6.516-6.516,17.476,17.476,0,0,1,8.963-2.4,17.477,17.477,0,0,1,8.963,2.4,17.811,17.811,0,0,1,6.516,6.516,17.476,17.476,0,0,1,2.4,8.963,17.476,17.476,0,0,1-2.4,8.963,17.811,17.811,0,0,1-6.516,6.516,17.476,17.476,0,0,1-8.963,2.4,17.476,17.476,0,0,1-8.963-2.4A17.811,17.811,0,0,1,218.161-54.126Zm-2.554-16.567a19.177,19.177,0,0,0-1.549,7.6,19.177,19.177,0,0,0,1.549,7.6,19.639,19.639,0,0,0,4.174,6.256,19.638,19.638,0,0,0,6.256,4.174,19.177,19.177,0,0,0,7.6,1.549,19.177,19.177,0,0,0,7.6-1.549,19.639,19.639,0,0,0,6.255-4.174,19.638,19.638,0,0,0,4.174-6.256,19.177,19.177,0,0,0,1.549-7.6,19.177,19.177,0,0,0-1.549-7.6,19.638,19.638,0,0,0-4.174-6.256,19.639,19.639,0,0,0-6.255-4.174,19.177,19.177,0,0,0-7.6-1.549,19.177,19.177,0,0,0-7.6,1.549,19.639,19.639,0,0,0-6.256,4.174A19.639,19.639,0,0,0,215.607-70.693Zm-1.561,15.869a20.732,20.732,0,0,1-1.691-8.266,20.732,20.732,0,0,1,1.691-8.266,21.456,21.456,0,0,1,4.541-6.788,21.455,21.455,0,0,1,6.788-4.541,20.732,20.732,0,0,1,8.266-1.691,20.732,20.732,0,0,1,8.266,1.691,21.456,21.456,0,0,1,6.788,4.541,21.455,21.455,0,0,1,4.541,6.788,20.732,20.732,0,0,1,1.691,8.266,20.732,20.732,0,0,1-1.691,8.266,21.456,21.456,0,0,1-4.541,6.788,21.456,21.456,0,0,1-6.788,4.541A20.732,20.732,0,0,1,233.64-41.8a20.731,20.731,0,0,1-8.266-1.691,21.455,21.455,0,0,1-6.788-4.541A21.456,21.456,0,0,1,214.046-54.824ZM256.6-82.672h1.845L273.016-45.8l14.569-36.871h1.821L273.939-43.507h-1.845Zm17.6,30.651-.97,2.176-12.96-32.827h1.821Zm1.821-4.659-.9,2.341L263.935-82.672h1.845Zm1.8-4.73-.9,2.389L267.6-82.672h1.821Zm20.741-21.262H300.4L284.912-43.507h-1.821Zm-3.642,0h1.821L281.247-43.507h-1.821Zm-3.689,0h1.845L277.581-43.507H275.76Zm20.81,15.349V-82.672h1.7v15.349Zm-3.406,0V-82.672h1.7v15.349Zm-3.406,0V-82.672h1.7v15.349Zm30.46-.024h-2.862a3.293,3.293,0,0,1-2.625-.934,3.657,3.657,0,0,1-.8-2.471q0-3.406,5.085-3.406,4.777,0,7.19,1.419L340.3-71.7a15.509,15.509,0,0,0-5.818-.757,5.6,5.6,0,0,0-2.732.449,1.413,1.413,0,0,0-.7,1.253,1.889,1.889,0,0,0,.378,1.253,1.761,1.761,0,0,0,1.4.449h2.933a14.619,14.619,0,0,1,5.759,1.088,11.5,11.5,0,0,1,4.222,2.968,13.207,13.207,0,0,1,2.531,4.328,15.448,15.448,0,0,1,.875,5.239,14.288,14.288,0,0,1-.639,4.3,12.2,12.2,0,0,1-1.928,3.737,13.272,13.272,0,0,1-3.1,2.944,14.4,14.4,0,0,1-4.3,1.939,20,20,0,0,1-5.4.7,25.889,25.889,0,0,1-8.55-1.384,18.34,18.34,0,0,1-6.634-3.867l1.372-1.017A16.654,16.654,0,0,0,326-44.7a24.709,24.709,0,0,0,7.769,1.194,17.3,17.3,0,0,0,5.853-.934,11.83,11.83,0,0,0,4.3-2.566,11.359,11.359,0,0,0,2.6-3.784,11.774,11.774,0,0,0,.911-4.635,13.163,13.163,0,0,0-1.324-5.948,10.488,10.488,0,0,0-4.032-4.316A12.023,12.023,0,0,0,335.686-67.347Zm-2.862,1.7h2.7a9.713,9.713,0,0,1,7.509,2.933,10.331,10.331,0,0,1,2.708,7.284,9.524,9.524,0,0,1-3.146,7.32q-3.145,2.9-8.822,2.9a23.308,23.308,0,0,1-7.071-1.041,15.2,15.2,0,0,1-5.463-2.933l1.324-1.064a13.867,13.867,0,0,0,4.884,2.46,22.109,22.109,0,0,0,6.326.875q4.99,0,7.627-2.389a7.893,7.893,0,0,0,2.637-6.125,8.682,8.682,0,0,0-2.211-6.1,8.151,8.151,0,0,0-6.326-2.412h-2.672a6.667,6.667,0,0,1-5.179-1.892,7.014,7.014,0,0,1-1.726-4.919,6.258,6.258,0,0,1,2.14-4.919q2.14-1.892,6.421-1.892a21.307,21.307,0,0,1,5.581.7,11.994,11.994,0,0,1,4.257,2l-1.348,1.041q-2.956-2.034-8.49-2.034-3.571,0-5.215,1.407a4.635,4.635,0,0,0-1.644,3.7,5.445,5.445,0,0,0,1.218,3.713A5.04,5.04,0,0,0,332.824-65.644Zm0,3.406h2.6a6.621,6.621,0,0,1,5.179,1.916,7.035,7.035,0,0,1,1.726,4.9,6.258,6.258,0,0,1-2.14,4.919q-2.14,1.892-6.421,1.892a21.44,21.44,0,0,1-5.593-.7,11.99,11.99,0,0,1-4.269-2l1.348-1.041q2.956,2.034,8.514,2.034,3.571,0,5.215-1.407a4.635,4.635,0,0,0,1.644-3.7,5.422,5.422,0,0,0-1.23-3.7,5.055,5.055,0,0,0-4-1.407h-2.578a9.914,9.914,0,0,1-7.58-2.9,10.247,10.247,0,0,1-2.732-7.32,9.524,9.524,0,0,1,3.145-7.32q3.145-2.9,8.822-2.9a23.194,23.194,0,0,1,7.06,1.041A15.2,15.2,0,0,1,346.991-77l-1.324,1.064a13.875,13.875,0,0,0-4.872-2.46,21.988,21.988,0,0,0-6.315-.875q-4.99,0-7.627,2.389a7.893,7.893,0,0,0-2.637,6.125,8.644,8.644,0,0,0,2.223,6.114A8.273,8.273,0,0,0,332.824-62.238Zm0,3.406h2.6a3.27,3.27,0,0,1,2.625.946,3.666,3.666,0,0,1,.8,2.46q0,3.406-5.085,3.406-4.8,0-7.213-1.419l1.372-1.041a15.6,15.6,0,0,0,5.842.757,5.6,5.6,0,0,0,2.732-.449,1.413,1.413,0,0,0,.7-1.253,1.859,1.859,0,0,0-.39-1.242,1.809,1.809,0,0,0-1.431-.461h-2.554a15.64,15.64,0,0,1-5.9-1.064,11.561,11.561,0,0,1-4.328-2.933,13.055,13.055,0,0,1-2.59-4.328,15.32,15.32,0,0,1-.9-5.3,14.288,14.288,0,0,1,.639-4.3,12.2,12.2,0,0,1,1.928-3.737,13.272,13.272,0,0,1,3.1-2.944,14.4,14.4,0,0,1,4.3-1.939,20,20,0,0,1,5.4-.7,25.785,25.785,0,0,1,8.538,1.384,18.353,18.353,0,0,1,6.622,3.867l-1.372,1.017a16.666,16.666,0,0,0-6.031-3.37,24.6,24.6,0,0,0-7.757-1.194,17.3,17.3,0,0,0-5.853.934,11.83,11.83,0,0,0-4.3,2.566,11.359,11.359,0,0,0-2.6,3.784,11.773,11.773,0,0,0-.911,4.635,13.15,13.15,0,0,0,1.348,6.007,10.3,10.3,0,0,0,4.115,4.293A12.737,12.737,0,0,0,332.824-58.833Z" transform="translate(560.799 384.583)"/>
  </g>
</svg>
