<svg xmlns="http://www.w3.org/2000/svg" viewBox="-17708 -21978 437 424">
  <defs>
    <style>
      .cls-1 {
        fill: #fff;
        stroke: #000;
        stroke-width: 10px;
      }

      .cls-2 {
        stroke: none;
      }

      .cls-3 {
        fill: none;
      }
    </style>
  </defs>
  <g id="prototyping" transform="translate(-17892 -23808)">
    <g id="Rectangle_33" data-name="Rectangle 33" class="cls-1" transform="translate(184 1830)">
      <rect class="cls-2" width="437" height="424"/>
      <rect class="cls-3" x="5" y="5" width="427" height="414"/>
    </g>
    <path id="ПРОЕКТ_ИРО_ВАНИЕ" data-name="ПРОЕКТ
ИРО
ВАНИЕ" d="M43.92-42V0H32.16V-32.58H16.2V0H4.5V-42Zm28.2,0a23.955,23.955,0,0,1,9.9,1.89,14.681,14.681,0,0,1,6.48,5.4,14.805,14.805,0,0,1,2.28,8.25,14.659,14.659,0,0,1-2.28,8.22,14.754,14.754,0,0,1-6.48,5.37,23.955,23.955,0,0,1-9.9,1.89H64.8V0H52.92V-42ZM71.4-20.34a8.3,8.3,0,0,0,5.52-1.59,5.633,5.633,0,0,0,1.86-4.53,5.724,5.724,0,0,0-1.86-4.56,8.193,8.193,0,0,0-5.52-1.62H64.8v12.3ZM117.36.84a25.121,25.121,0,0,1-11.97-2.82,21.187,21.187,0,0,1-8.34-7.8A21.156,21.156,0,0,1,94.02-21a21.156,21.156,0,0,1,3.03-11.22,21.187,21.187,0,0,1,8.34-7.8,25.121,25.121,0,0,1,11.97-2.82,25.121,25.121,0,0,1,11.97,2.82,21.188,21.188,0,0,1,8.34,7.8A21.156,21.156,0,0,1,140.7-21a21.156,21.156,0,0,1-3.03,11.22,21.188,21.188,0,0,1-8.34,7.8A25.121,25.121,0,0,1,117.36.84Zm0-9.84a11.249,11.249,0,0,0,5.76-1.5,10.789,10.789,0,0,0,4.08-4.23A12.807,12.807,0,0,0,128.7-21a12.807,12.807,0,0,0-1.5-6.27,10.789,10.789,0,0,0-4.08-4.23,11.249,11.249,0,0,0-5.76-1.5,11.249,11.249,0,0,0-5.76,1.5,10.789,10.789,0,0,0-4.08,4.23,12.807,12.807,0,0,0-1.5,6.27,12.807,12.807,0,0,0,1.5,6.27,10.789,10.789,0,0,0,4.08,4.23A11.249,11.249,0,0,0,117.36-9Zm63.42-.18V0H147.06V-42H180v9.18H158.82v7.08h18.66v8.88H158.82v7.68Zm23.76-6.9h-5.4V0H187.32V-42h11.82v16.32h5.7L214.86-42h12.48L214.2-21.72,227.46,0H214.08Zm60.06-16.5H251.76V0h-11.7V-32.58h-12.9V-42H264.6ZM4.5,31H16.2V55.66L33.54,31H44.7V73H33V48.4L15.72,73H4.5Zm68.4,0a23.955,23.955,0,0,1,9.9,1.89,14.229,14.229,0,0,1,8.76,13.65A14.148,14.148,0,0,1,82.8,60.13a23.955,23.955,0,0,1-9.9,1.89H65.58V73H53.7V31Zm-.72,21.66a8.3,8.3,0,0,0,5.52-1.59,5.633,5.633,0,0,0,1.86-4.53,5.724,5.724,0,0,0-1.86-4.56,8.193,8.193,0,0,0-5.52-1.62h-6.6v12.3Zm45.96,21.18a25.121,25.121,0,0,1-11.97-2.82A21.024,21.024,0,0,1,94.8,52a21.024,21.024,0,0,1,11.37-19.02,26.814,26.814,0,0,1,23.94,0A21.024,21.024,0,0,1,141.48,52a21.024,21.024,0,0,1-11.37,19.02A25.121,25.121,0,0,1,118.14,73.84Zm0-9.84a11.249,11.249,0,0,0,5.76-1.5,10.789,10.789,0,0,0,4.08-4.23,13.854,13.854,0,0,0,0-12.54,10.789,10.789,0,0,0-4.08-4.23,11.809,11.809,0,0,0-11.52,0,10.789,10.789,0,0,0-4.08,4.23,13.854,13.854,0,0,0,0,12.54,10.789,10.789,0,0,0,4.08,4.23A11.249,11.249,0,0,0,118.14,64ZM35.1,124.04a11.31,11.31,0,0,1,5.67,3.72A9.89,9.89,0,0,1,42.72,134a10.334,10.334,0,0,1-4.35,8.79Q34.02,146,26.04,146H4.5V104H24.9q7.56,0,11.73,2.85a9.207,9.207,0,0,1,4.17,8.07,9.936,9.936,0,0,1-1.47,5.4A10.276,10.276,0,0,1,35.1,124.04ZM16.2,120.8h7.56q5.04,0,5.04-4.14t-5.04-4.14H16.2Zm9.36,16.68q5.16,0,5.16-4.38,0-4.26-5.16-4.26H16.2v8.64Zm52.56.36H60.36L57.06,146H44.94l18.54-42h11.7l18.6,42H81.42Zm-3.48-8.76-5.4-13.44-5.4,13.44ZM138.54,104v42H126.66V129.62h-16.2V146H98.58V104h11.88v15.78h16.2V104Zm9,0h11.7v24.66L176.58,104h11.16v42h-11.7V121.4L158.76,146H147.54Zm82.92,32.82V146H196.74V104h32.94v9.18H208.5v7.08h18.66v8.88H208.5v7.68Z" transform="translate(268 1990.5)"/>
  </g>
</svg>
