<svg xmlns="http://www.w3.org/2000/svg" viewBox="-1754 2611 59.777 35.501">
  <defs>
    <style>
      .cls-1 {
        fill: #ff4e5a;
        fill-rule: evenodd;
      }
    </style>
  </defs>
  <path id="ic_head_logo" class="cls-1" d="M58.705,2.4c.416-1.386,0-2.4-1.978-2.4h-6.54a2.824,2.824,0,0,0-2.845,1.85s-3.326,8.106-8.037,13.372c-1.524,1.524-2.217,2.009-3.049,2.009-.416,0-1.039-.485-1.039-1.871V2.4c0-1.663-.461-2.4-1.846-2.4H23.1a1.576,1.576,0,0,0-1.664,1.5c0,1.576,2.355,1.94,2.6,6.374v9.63c0,2.111-.381,2.494-1.213,2.494-2.217,0-7.61-8.142-10.808-17.459C11.382.731,10.753,0,9.082,0H2.542C.674,0,.3.88.3,1.85c0,1.732,2.217,10.323,10.323,21.686,5.4,7.76,13.018,11.966,19.946,11.966,4.157,0,4.671-.934,4.671-2.543V27.093c0-1.868.394-2.241,1.71-2.241.97,0,2.633.485,6.513,4.226C47.9,33.512,48.628,35.5,51.122,35.5h6.54c1.868,0,2.8-.934,2.264-2.778-.59-1.837-2.707-4.5-5.516-7.664-1.524-1.8-3.811-3.741-4.5-4.711-.97-1.247-.693-1.8,0-2.91C49.906,17.438,57.874,6.214,58.705,2.4Z" transform="translate(-1754.3 2611)"/>
</svg>
